<svg id="Layer_1" data-name="Layer 1" xmlns="http://www.w3.org/2000/svg" viewBox="0 0 65.98 47"><defs><style>.cls-1,.cls-4{fill:#fff;}.cls-1{stroke:#005fa3;stroke-miterlimit:10;}.cls-2{fill:#005fa3;}.cls-3{fill:#e2f3f8;}.cls-3,.cls-5,.cls-6{fill-rule:evenodd;}.cls-5{fill:#989898;}.cls-6{fill:#97d3ea;}</style></defs><circle class="cls-1" cx="32.97" cy="23.5" r="23"/><circle class="cls-2" cx="32.97" cy="23.5" r="20.67"/><path class="cls-3" d="M161.39,455.74c25.11-9.71,23.37,10.66,49.49-3.83C186.82,459.68,188.48,438.69,161.39,455.74Z" transform="translate(-144.9 -438.69)"/><path class="cls-4" d="M181.87,482.46V445.1a.8.8,0,0,0-.8-.8h-6.21a.8.8,0,0,0-.81.8v37.39a20.58,20.58,0,0,0,7.82,0Z" transform="translate(-144.9 -438.69)"/><path class="cls-5" d="M144.9,474c27.09-17,25.43,3.94,49.49-3.83C168.28,484.69,170,464.32,144.9,474Z" transform="translate(-144.9 -438.69)"/><path class="cls-6" d="M153.15,464.89c27.08-17.05,25.43,3.93,49.49-3.83C176.52,475.55,178.26,455.17,153.15,464.89Z" transform="translate(-144.9 -438.69)"/><path class="cls-4" d="M191.92,456.38a.8.8,0,0,0-.8-.8h-6.21a.8.8,0,0,0-.81.8v25.51a20.5,20.5,0,0,0,7.82-4.56Z" transform="translate(-144.9 -438.69)"/><path class="cls-4" d="M171.64,468.54a.8.8,0,0,0-.8-.8h-6.21a.8.8,0,0,0-.81.8v8.79a20.5,20.5,0,0,0,7.82,4.56Z" transform="translate(-144.9 -438.69)"/></svg>