<svg width="55" height="36" viewBox="0 0 55 36" fill="none" xmlns="http://www.w3.org/2000/svg">
<g clip-path="url(#clip0_3465_19482)">
<path d="M17.4262 4.24086L26.3712 1.70508L36.0382 3.53072L40.1262 7.40985L51.8162 12.1441V28.3461C49.9306 30.7092 47.4474 32.541 44.6162 33.6573C40.0922 35.4238 33.3412 35.5313 27.5552 35.552C19.6654 35.4191 11.8089 34.5075 4.10323 32.8308L2.51123 24.5883L4.10323 17.1338L10.4262 13.0525L17.4262 4.24086Z" fill="#E7F2F8"/>
<path d="M41.1921 35.9871H28.5841C28.0275 35.9773 27.4976 35.7498 27.1109 35.3548C26.7243 34.9597 26.5125 34.4294 26.5221 33.8804C26.5221 32.7166 27.5921 33.2985 28.6671 33.048H41.2751C46.6001 33.048 51.8191 27.4063 51.8191 21.9669C51.8191 16.5274 47.3621 11.1974 42.0371 11.1974C41.7771 11.1974 41.5011 11.2113 41.1931 11.2389C40.7994 11.2704 40.4048 11.1887 40.0571 11.0037C39.7094 10.8187 39.4236 10.5382 39.2341 10.1963C36.3851 5.17607 30.0251 1.80194 24.4341 2.8267C18.8431 3.85147 13.5741 9.39449 12.6111 15.1131C12.5376 15.6086 12.2829 16.0605 11.895 16.3837C11.5071 16.7068 11.0128 16.879 10.5051 16.8677H10.3551C9.08804 16.8443 7.83838 17.1614 6.74003 17.785C5.64169 18.4086 4.73605 19.3151 4.12012 20.4075C3.47983 21.8308 3.14902 23.3706 3.14902 24.9277C3.14902 26.4848 3.47983 28.0247 4.12012 29.448C5.41412 31.6977 8.59812 33.114 11.1511 33.0519H28.5841C29.6301 33.3222 30.6461 32.7205 30.6461 33.8843C30.6558 34.4334 30.444 34.9637 30.0573 35.3587C29.6706 35.7538 29.1408 35.9812 28.5841 35.9911H11.1511C8.26978 35.942 5.51558 34.8122 3.44863 32.8317C1.38168 30.8511 0.157167 28.1684 0.024123 25.3292C-0.199403 22.4881 0.673108 19.6687 2.46704 17.435C4.26096 15.2013 6.84397 13.7182 9.69913 13.2825C10.5318 10.0046 12.3026 7.03204 14.8005 4.71915C17.2983 2.40626 20.4178 0.850619 23.7871 0.237663C27.1387 -0.318812 30.5822 0.106943 33.6908 1.46217C36.7993 2.8174 39.4364 5.04252 41.2751 7.86177C44.9688 8.0013 48.4634 9.54932 51.0229 12.1798C53.5823 14.8102 55.0067 18.3177 54.996 21.9635C54.9854 25.6092 53.5406 29.1086 50.9659 31.7245C48.3912 34.3404 44.8876 35.8686 41.1931 35.9871H41.1921Z" fill="#ACD2E5"/>
<path fill-rule="evenodd" clip-rule="evenodd" d="M30.0932 26.9398L30.8102 29.1718H22.8392L23.5302 26.9398H30.0932ZM32.8932 29.8652C33.0261 29.8683 33.1528 29.9208 33.248 30.0123C33.3431 30.1038 33.3997 30.2274 33.4062 30.3583C33.4038 30.4906 33.3486 30.6166 33.2526 30.709C33.1565 30.8013 33.0273 30.8525 32.8932 30.8515H20.7092C20.5751 30.8525 20.4459 30.8013 20.3499 30.709C20.2538 30.6166 20.1986 30.4906 20.1962 30.3583C20.1986 30.226 20.2538 30.1 20.3499 30.0077C20.4459 29.9153 20.5751 29.8641 20.7092 29.8652H32.8932ZM16.9662 10.006C16.6658 10.002 16.3675 10.0566 16.0885 10.1668C15.8096 10.277 15.5556 10.4405 15.341 10.648C15.1265 10.8555 14.9557 11.1028 14.8385 11.3757C14.7213 11.6486 14.66 11.9417 14.6582 12.238V24.6841C14.66 24.9804 14.7213 25.2735 14.8385 25.5463C14.9557 25.8191 15.1265 26.0664 15.3411 26.2738C15.5556 26.4812 15.8097 26.6446 16.0886 26.7547C16.3675 26.8648 16.6658 26.9193 16.9662 26.9152H22.7582L22.0682 29.1472H20.7352C20.4197 29.1448 20.1161 29.266 19.8911 29.4842C19.6661 29.7024 19.5381 29.9998 19.5352 30.311C19.5341 30.4671 19.5644 30.6218 19.6242 30.7663C19.6841 30.9108 19.7723 31.0423 19.8838 31.153C19.9954 31.2637 20.128 31.3516 20.2741 31.4116C20.4202 31.4716 20.5769 31.5024 20.7352 31.5024H32.9152C33.076 31.5064 33.2359 31.4785 33.3855 31.4203C33.5351 31.3621 33.6713 31.2748 33.7861 31.1637C33.9008 31.0525 33.9917 30.9198 34.0534 30.7733C34.1151 30.6268 34.1463 30.4696 34.1452 30.311C34.1426 30.1547 34.1087 30.0005 34.0453 29.8572C33.982 29.7139 33.8905 29.5845 33.7761 29.4763C33.6618 29.368 33.5268 29.2833 33.379 29.2268C33.2313 29.1703 33.0736 29.1432 32.9152 29.1472H31.6052L30.9142 26.9152H36.7092C37.0094 26.9192 37.3074 26.8646 37.5861 26.7545C37.8648 26.6444 38.1186 26.481 38.333 26.2737C38.5473 26.0664 38.718 25.8193 38.8351 25.5467C38.9522 25.274 39.0134 24.9812 39.0152 24.6851V12.238C38.9975 11.6398 38.744 11.0719 38.3085 10.6552C37.8731 10.2384 37.29 10.0055 36.6832 10.006H20.6582C20.6133 10.004 20.5684 10.0108 20.5261 10.0259C20.4839 10.0411 20.445 10.0643 20.4119 10.0942C20.3787 10.1242 20.3519 10.1603 20.3329 10.2005C20.3139 10.2407 20.3031 10.2842 20.3012 10.3285C20.3004 10.3748 20.3091 10.4208 20.3268 10.4636C20.3445 10.5065 20.3708 10.5454 20.4042 10.5779C20.4375 10.6105 20.4773 10.636 20.5209 10.653C20.5646 10.67 20.6113 10.678 20.6582 10.6767H36.6832C37.1027 10.6795 37.5043 10.8447 37.8015 11.1368C38.0987 11.4288 38.2678 11.8243 38.2722 12.238V24.6841C38.2711 25.0989 38.1032 25.4963 37.8053 25.7891C37.5073 26.0818 37.1038 26.246 36.6832 26.2455H16.9662C16.543 26.2468 16.1362 26.0837 15.834 25.7915C15.5317 25.4993 15.3583 25.1015 15.3512 24.6841V12.238C15.3578 11.8205 15.5311 11.4223 15.8334 11.13C16.1358 10.8377 16.5428 10.6748 16.9662 10.6767H19.1972C19.2443 10.6782 19.2912 10.6702 19.3351 10.6533C19.379 10.6364 19.4189 10.6109 19.4526 10.5784C19.4862 10.5459 19.5128 10.507 19.5308 10.464C19.5488 10.4211 19.5578 10.375 19.5572 10.3285C19.5528 10.2387 19.5124 10.1542 19.4449 10.0938C19.3774 10.0333 19.2883 10.0017 19.1972 10.006H16.9662Z" fill="#ACD2E5" stroke="#ACD2E5" stroke-width="0.5"/>
<path fill-rule="evenodd" clip-rule="evenodd" d="M17.1732 11.6925C17.1225 11.6896 17.0718 11.6973 17.0244 11.7152C16.977 11.7331 16.934 11.7608 16.8983 11.7963C16.8625 11.8318 16.8349 11.8745 16.8171 11.9214C16.7993 11.9682 16.7919 12.0183 16.7952 12.0683V23.5656C16.7973 23.6573 16.8351 23.7447 16.9009 23.8096C16.9666 23.8744 17.0552 23.9117 17.1482 23.9137H36.5282C36.6194 23.9073 36.7051 23.8684 36.7694 23.8044C36.8337 23.7404 36.8724 23.6555 36.8782 23.5656V22.3396C36.8725 22.2494 36.8339 22.1644 36.7696 22.1C36.7052 22.0357 36.6195 21.9964 36.5282 21.9895C36.435 21.992 36.3464 22.0297 36.2807 22.0949C36.215 22.1601 36.1772 22.2477 36.1752 22.3396V23.2154H17.5252V12.4164H36.1752V20.9391C36.1717 20.9858 36.1783 21.0327 36.1948 21.0766C36.2112 21.1206 36.2371 21.1605 36.2706 21.1937C36.3041 21.2269 36.3444 21.2526 36.3889 21.2691C36.4333 21.2856 36.4808 21.2924 36.5282 21.2892C36.6196 21.2824 36.7054 21.2433 36.7698 21.1789C36.8341 21.1145 36.8727 21.0293 36.8782 20.9391V12.0683C36.8796 12.019 36.8708 11.9699 36.8524 11.9241C36.8341 11.8782 36.8065 11.8364 36.7714 11.8013C36.7363 11.7662 36.6943 11.7385 36.6481 11.7198C36.6018 11.7011 36.5522 11.6918 36.5022 11.6925H17.1732Z" fill="#ACD2E5" stroke="#ACD2E5" stroke-width="0.5"/>
<path fill-rule="evenodd" clip-rule="evenodd" d="M27.0261 24.759C27.0045 24.7593 26.9831 24.7619 26.9621 24.7669C26.8783 24.7942 26.8049 24.8458 26.7514 24.915C26.6978 24.9842 26.6667 25.0676 26.6621 25.1545C26.6548 25.2093 26.6592 25.2649 26.6751 25.3178C26.691 25.3707 26.7179 25.4198 26.7542 25.4618C26.7905 25.5038 26.8353 25.5379 26.8857 25.5617C26.9362 25.5856 26.9912 25.5988 27.0471 25.6003C27.0933 25.6005 27.1388 25.5902 27.1803 25.5702C27.2217 25.5502 27.258 25.521 27.2861 25.485C27.3263 25.4577 27.3604 25.4226 27.3864 25.382C27.4125 25.3413 27.4298 25.2958 27.4375 25.2483C27.4452 25.2008 27.443 25.1523 27.431 25.1056C27.4191 25.059 27.3977 25.0152 27.3681 24.977C27.3361 24.9138 27.2875 24.8602 27.2273 24.8219C27.1672 24.7835 27.0977 24.7618 27.0261 24.759Z" fill="#ACD2E5" stroke="#ACD2E5" stroke-width="0.5"/>
</g>
<defs>
<clipPath id="clip0_3465_19482">
<rect width="55" height="36" fill="white"/>
</clipPath>
</defs>
</svg>
