<svg width="55" height="36" viewBox="0 0 55 36" fill="none" xmlns="http://www.w3.org/2000/svg">
<g clip-path="url(#clip0_3465_19471)">
<path d="M17.426 4.25209L26.371 1.71631L36.038 3.54195L40.126 7.42108L51.816 12.1553V28.3573C49.9304 30.7204 47.4471 32.5523 44.616 33.6685C40.092 35.435 33.341 35.5425 27.555 35.5632C19.6652 35.4303 11.8087 34.5187 4.10299 32.842L2.51099 24.5995L4.10299 17.145L10.426 13.0637L17.426 4.25209Z" fill="#E7F2F8"/>
<path d="M41.1919 35.9991H28.5839C28.0272 35.9892 27.4974 35.7618 27.1107 35.3667C26.724 34.9717 26.5122 34.4414 26.5219 33.8924C26.5219 32.7285 27.5919 33.3104 28.6669 33.0599H41.2749C46.5999 33.0599 51.8189 27.4183 51.8189 21.9788C51.8189 16.5394 47.3619 11.2094 42.0369 11.2094C41.7769 11.2094 41.5009 11.2232 41.1929 11.2508C40.7991 11.2824 40.4045 11.2007 40.0569 11.0157C39.7092 10.8306 39.4233 10.5502 39.2339 10.2083C36.3849 5.18804 30.0249 1.8139 24.4339 2.83867C18.8429 3.86343 13.5739 9.40645 12.6109 15.125C12.5373 15.6205 12.2826 16.0724 11.8947 16.3956C11.5068 16.7188 11.0125 16.891 10.5049 16.8797H10.3549C9.08779 16.8563 7.83813 17.1734 6.73979 17.797C5.64145 18.4205 4.7358 19.3271 4.11988 20.4195C3.47959 21.8428 3.14878 23.3826 3.14878 24.9397C3.14878 26.4968 3.47959 28.0366 4.11988 29.4599C5.41388 31.7097 8.59788 33.126 11.1509 33.0639H28.5839C29.6299 33.3341 30.6459 32.7325 30.6459 33.8963C30.6555 34.4453 30.4437 34.9756 30.0571 35.3707C29.6704 35.7657 29.1405 35.9932 28.5839 36.003H11.1509C8.26953 35.9539 5.51534 34.8242 3.44839 32.8436C1.38143 30.8631 0.156923 28.1804 0.0238788 25.3411C-0.199647 22.5001 0.672863 19.6806 2.46679 17.447C4.26072 15.2133 6.84373 13.7302 9.69888 13.2944C10.5316 10.0166 12.3024 7.044 14.8002 4.73111C17.2981 2.41822 20.4176 0.862582 23.7869 0.249626C27.1385 -0.306849 30.5819 0.118906 33.6905 1.47413C36.7991 2.82936 39.4362 5.05448 41.2749 7.87373C44.9686 8.01326 48.4632 9.56129 51.0226 12.1917C53.582 14.8222 55.0064 18.3297 54.9958 21.9754C54.9852 25.6212 53.5403 29.1206 50.9656 31.7365C48.3909 34.3523 44.8873 35.8805 41.1929 35.9991H41.1919Z" fill="#ACD2E5"/>
<path d="M38.1178 15.4112V13.6595C38.1178 13.4272 38.0242 13.2044 37.8577 13.0402C37.6912 12.8759 37.4653 12.7836 37.2298 12.7836H25.6898C25.0378 12.7836 24.5868 11.033 23.9138 11.033H19.0318C18.7963 11.033 18.5704 11.1252 18.4039 11.2895C18.2374 11.4537 18.1438 11.6765 18.1438 11.9088V28.1058C18.1438 28.2209 18.1668 28.3347 18.2114 28.441C18.256 28.5473 18.3214 28.6438 18.4039 28.7251C18.4863 28.8065 18.5842 28.871 18.692 28.915C18.7997 28.959 18.9152 28.9817 19.0318 28.9817H36.3438C36.4604 28.9817 36.5759 28.959 36.6836 28.915C36.7914 28.871 36.8893 28.8065 36.9717 28.7251C37.0542 28.6438 37.1196 28.5473 37.1642 28.441C37.2088 28.3347 37.2318 28.2209 37.2318 28.1058" stroke="#ACD2E5" stroke-width="2" stroke-miterlimit="10" stroke-linecap="round"/>
<path d="M18.106 28.1068L20.325 16.287C20.325 16.0547 20.4185 15.8319 20.585 15.6677C20.7516 15.5034 20.9774 15.4111 21.213 15.4111H38.523C38.7585 15.4111 38.9843 15.5034 39.1509 15.6677C39.3174 15.8319 39.411 16.0547 39.411 16.287L37.192 28.1068" stroke="#ACD2E5" stroke-width="2" stroke-miterlimit="10" stroke-linecap="round"/>
</g>
<defs>
<clipPath id="clip0_3465_19471">
<rect width="55" height="36" fill="white"/>
</clipPath>
</defs>
</svg>
