<svg width="55" height="36" viewBox="0 0 55 36" fill="none" xmlns="http://www.w3.org/2000/svg">
<path d="M17.4345 4.241L26.3785 1.70459L36.0444 3.53069L40.1319 7.41077L51.8205 12.1462V28.3522C49.9351 30.7159 47.4522 32.5482 44.6214 33.6647C40.0979 35.4316 33.3477 35.5392 27.5623 35.5599C19.6734 35.4269 11.8178 34.5151 4.11306 32.838L2.52124 24.5934L4.11306 17.1371L10.4353 13.0548L17.4345 4.241Z" fill="#E7F2F8"/>
<path d="M41.1976 35.996H28.5911C28.0345 35.9862 27.5047 35.7587 27.1181 35.3635C26.7314 34.9684 26.5197 34.4379 26.5293 33.8888C26.5293 32.7247 27.5992 33.3067 28.6741 33.0561H41.2806C46.605 33.0561 51.8234 27.4131 51.8234 21.9723C51.8234 16.5315 47.3669 11.2002 42.0425 11.2002C41.7825 11.2002 41.5066 11.214 41.1986 11.2417C40.8049 11.2732 40.4104 11.1915 40.0627 11.0064C39.7151 10.8214 39.4293 10.5409 39.2398 10.1989C36.3912 5.17736 30.0319 1.80238 24.4416 2.8274C18.8512 3.85242 13.5828 9.39681 12.6199 15.1168C12.5464 15.6125 12.2917 16.0645 11.9038 16.3877C11.516 16.711 11.0217 16.8832 10.5142 16.8719H10.3642C9.09724 16.8485 7.84772 17.1657 6.74951 17.7894C5.65129 18.4131 4.74575 19.3199 4.1299 20.4126C3.48968 21.8362 3.15891 23.3764 3.15891 24.9339C3.15891 26.4914 3.48968 28.0316 4.1299 29.4553C5.42375 31.7056 8.60738 33.1222 11.1601 33.0601H28.5911C29.6369 33.3304 30.6528 32.7286 30.6528 33.8927C30.6625 34.4419 30.4507 34.9723 30.0641 35.3675C29.6775 35.7626 29.1476 35.9901 28.5911 36H11.1601C8.27907 35.9509 5.5252 34.8209 3.45848 32.8398C1.39177 30.8588 0.167401 28.1754 0.0343729 25.3354C-0.189127 22.4937 0.683282 19.6736 2.477 17.4393C4.27072 15.2051 6.85343 13.7216 9.70826 13.2858C10.5408 10.0071 12.3115 7.03378 14.809 4.72032C17.3066 2.40686 20.4257 0.85083 23.7946 0.237722C27.1458 -0.318891 30.5889 0.10697 33.6971 1.46253C36.8053 2.8181 39.4421 5.04377 41.2806 7.86371C44.9739 8.00328 48.4681 9.55169 51.0272 12.1828C53.5863 14.8139 55.0106 18.3223 54.9999 21.9689C54.9893 25.6156 53.5446 29.1158 50.9702 31.7324C48.3958 34.3489 44.8926 35.8774 41.1986 35.996H41.1976Z" fill="#ACD2E5"/>
<path d="M38.1238 15.4027V13.6506C38.1238 13.4183 38.0302 13.1954 37.8637 13.0311C37.6972 12.8669 37.4714 12.7746 37.2359 12.7746H25.6972C25.0453 12.7746 24.5944 11.0234 23.9214 11.0234H19.04C18.8045 11.0234 18.5787 11.1157 18.4122 11.28C18.2456 11.4443 18.1521 11.6671 18.1521 11.8995V28.1005C18.1521 28.2156 18.1751 28.3295 18.2197 28.4358C18.2643 28.5421 18.3297 28.6387 18.4122 28.72C18.4946 28.8014 18.5925 28.8659 18.7002 28.9099C18.8079 28.9539 18.9234 28.9766 19.04 28.9766H36.35C36.4666 28.9766 36.5821 28.9539 36.6898 28.9099C36.7975 28.8659 36.8954 28.8014 36.9778 28.72C37.0603 28.6387 37.1257 28.5421 37.1703 28.4358C37.2149 28.3295 37.2379 28.2156 37.2379 28.1005" stroke="#ACD2E5" stroke-width="2" stroke-miterlimit="10" stroke-linecap="round"/>
<path d="M18.114 28.1016L20.3328 16.2789C20.3328 16.0465 20.4263 15.8237 20.5928 15.6594C20.7593 15.4951 20.9852 15.4028 21.2207 15.4028H38.5287C38.7641 15.4028 38.99 15.4951 39.1565 15.6594C39.323 15.8237 39.4166 16.0465 39.4166 16.2789L37.1978 28.1016" stroke="#ACD2E5" stroke-width="2" stroke-miterlimit="10" stroke-linecap="round"/>
<path d="M25.3039 24.5451C26.9199 23.0038 26.7328 22.9079 27.2831 23.4697C27.8334 24.0314 28.0252 23.8595 26.4099 25.4001C24.7946 26.9406 24.6439 27.2339 24.0921 26.6708C23.5404 26.1076 23.6878 26.0863 25.3039 24.5451Z" fill="#ACD2E5"/>
<path d="M29.9671 17.0347C29.4507 17.0347 28.9395 17.1351 28.4625 17.3302C27.9856 17.5253 27.5523 17.8113 27.1874 18.1717C26.8225 18.5322 26.5333 18.96 26.3361 19.4309C26.139 19.9017 26.0379 20.4063 26.0385 20.9157C26.0724 21.6179 26.2629 22.3041 26.5965 22.9253L23.8658 25.6176C23.7515 25.701 23.657 25.8079 23.5888 25.9309C23.5206 26.0539 23.4804 26.19 23.4708 26.3299C23.467 26.4715 23.4932 26.6122 23.5477 26.7432C23.6022 26.8742 23.6839 26.9925 23.7874 27.0906C23.891 27.1887 24.0141 27.2643 24.149 27.3127C24.2839 27.3611 24.4275 27.3812 24.5707 27.3717C24.8937 27.3717 25.0116 27.1892 25.2216 26.9771L27.9563 24.2897C28.5798 24.6042 29.267 24.7762 29.9671 24.7929C31.0098 24.7929 32.0098 24.3842 32.7471 23.6567C33.4844 22.9292 33.8986 21.9426 33.8986 20.9138C33.8986 19.885 33.4844 18.8983 32.7471 18.1708C32.0098 17.4434 31.0098 17.0347 29.9671 17.0347V17.0347ZM24.9886 26.6308C24.9355 26.6849 24.872 26.728 24.8018 26.7576C24.7316 26.7872 24.6561 26.8028 24.5798 26.8034C24.5035 26.804 24.4278 26.7896 24.3571 26.7611C24.2865 26.7325 24.2223 26.6904 24.1683 26.6372C24.1142 26.584 24.0715 26.5207 24.0425 26.451C24.0135 26.3813 23.9988 26.3067 23.9993 26.2313C23.9998 26.156 24.0155 26.0816 24.0455 26.0123C24.0754 25.943 24.119 25.8803 24.1737 25.8277L26.8124 23.2193C27.0433 23.5263 27.3185 23.7982 27.6293 24.0263L24.9886 26.6308ZM29.9671 24.1467C29.3196 24.1467 28.6867 23.9572 28.1483 23.6023C27.61 23.2474 27.1904 22.743 26.9426 22.1528C26.6949 21.5626 26.63 20.9131 26.7564 20.2866C26.8827 19.66 27.1944 19.0845 27.6523 18.6328C28.1101 18.1811 28.6934 17.8735 29.3284 17.7488C29.9634 17.6242 30.6217 17.6882 31.2198 17.9326C31.818 18.1771 32.3293 18.5911 32.689 19.1223C33.0487 19.6534 33.2407 20.2779 33.2407 20.9167C33.2404 21.7733 32.8954 22.5947 32.2816 23.2004C31.6677 23.806 30.8352 24.1464 29.9671 24.1467Z" fill="#ACD2E5"/>
<path d="M29.9672 18.6545C29.6659 18.6545 29.3676 18.7131 29.0894 18.8269C28.8111 18.9407 28.5583 19.1075 28.3454 19.3177C28.1326 19.5279 27.9638 19.7775 27.8488 20.0521C27.7338 20.3267 27.6748 20.621 27.6752 20.9181C27.6752 21.0069 27.6592 20.9793 27.7492 20.9793C27.7927 20.9793 27.8344 20.9622 27.8651 20.9319C27.8959 20.9015 27.9132 20.8604 27.9132 20.8175C27.9128 20.563 27.9632 20.3109 28.0616 20.0756C28.16 19.8403 28.3044 19.6264 28.4866 19.4462C28.6688 19.266 28.8852 19.1229 29.1234 19.0251C29.3617 18.9274 29.6171 18.8768 29.8752 18.8765C29.9187 18.8765 29.9604 18.8594 29.9911 18.8291C30.0219 18.7987 30.0392 18.7576 30.0392 18.7147C30.0412 18.6259 30.0572 18.6545 29.9672 18.6545Z" fill="#ACD2E5" stroke="#ACD2E5"/>
</svg>
