<svg xmlns="http://www.w3.org/2000/svg" width="65" height="65" viewBox="0 0 65 65"><defs><style>.a{fill:none;}.b,.c{fill:#97d4ea;}.b{opacity:0.3;}</style></defs><path class="a" d="M0,0H65V65H0Z"/><path class="b" d="M22.479,23.958A9.479,9.479,0,1,0,13,14.479,9.49,9.49,0,0,0,22.479,23.958Z" transform="translate(22.208 8.542)"/><circle class="b" cx="2.708" cy="2.708" r="2.708" transform="translate(37.944 46.042)"/><circle class="b" cx="5.417" cy="5.417" r="5.417" transform="translate(13.542 32.5)"/><path class="c" d="M13.833,43.625A10.833,10.833,0,1,0,3,32.792,10.83,10.83,0,0,0,13.833,43.625Zm0-16.25a5.417,5.417,0,1,1-5.417,5.417A5.433,5.433,0,0,1,13.833,27.375Zm29.819,16.25a8.125,8.125,0,1,0-8.125,8.125A8.149,8.149,0,0,0,43.652,43.625Zm-10.833,0a2.708,2.708,0,1,1,2.708,2.708A2.716,2.716,0,0,1,32.819,43.625Zm6.744-10.833a14.9,14.9,0,1,0-14.9-14.9A14.922,14.922,0,0,0,39.562,32.792Zm0-24.375A9.479,9.479,0,1,1,30.083,17.9,9.49,9.49,0,0,1,39.562,8.417Z" transform="translate(5.125 5.125)"/></svg>